<svg xmlns="http://www.w3.org/2000/svg" viewBox="0 0 512 512"><title>Artboard 101</title><g id="Coffe_Mug" data-name="Coffe Mug"><path d="M469.33333,21.33333C469.33333,64,426.66667,64,426.66667,64c-21.33334,0-21.33334,21.33333-21.33334,21.33333,0,21.33334-21.33333,21.33334-21.33333,21.33334C362.66667,106.66667,362.66667,128,362.66667,128c0,21.33333-21.33334,21.33333-21.33334,21.33333v21.33334H105.94211c.72456-42.66667,22.05789-64,64.72456-64C192,106.66667,192,85.33333,192,85.33333,192,64,213.33333,64,213.33333,64c21.33334,0,21.33334-21.33333,21.33334-21.33333C234.66667,21.33333,256,21.33333,256,21.33333h42.6667l0,21.33335A21.33331,21.33331,0,0,0,320,64h0a21.33331,21.33331,0,0,0,21.33331-21.33322v-.0002a21.33334,21.33334,0,0,1,21.33333-21.33325Z" style="fill:#f3eee3"/><rect x="64" y="149.33333" width="320" height="341.33333" rx="21.33333" ry="21.33333" style="fill:#eae2ce"/><rect x="256" y="149.33333" width="128" height="341.33333" rx="21.33333" ry="21.33333" style="fill:#d4c3a2"/><path d="M298.66667,490.66667h64A21.33334,21.33334,0,0,0,384,469.33333v-256H298.66667Z" style="fill:#c5af83"/><rect x="298.66667" y="213.33333" width="64" height="85.33333" rx="31.99997" ry="31.99997" style="fill:#b99e69"/><rect x="298.66667" y="362.66667" width="64" height="85.33333" rx="31.99997" ry="31.99997" style="fill:#b99e69"/><rect x="298.66667" y="192" width="64" height="85.33333" rx="31.99997" ry="31.99997" style="fill:#e0d4b7"/><rect x="298.66667" y="341.33333" width="64" height="85.33333" rx="31.99997" ry="31.99997" style="fill:#e0d4b7"/><path d="M352,192h.00017a117.3332,117.3332,0,0,1,117.3332,117.33321v.00023A117.33321,117.33321,0,0,1,352.00028,426.66665H352a32,32,0,0,1-32-32v-.00007a32,32,0,0,1,32-32H352a53.33329,53.33329,0,0,0,53.33329-53.33329v-.00011A53.33329,53.33329,0,0,0,352,256h-.00009A31.99986,31.99986,0,0,1,320,224.00013V224A32,32,0,0,1,352,192Z" style="fill:#eae2ce"/><path d="M352,426.66667a32.035,32.035,0,0,1-32-32h21.33333A10.67387,10.67387,0,0,0,352,405.33333a96.105,96.105,0,0,0,96-96h21.33333A117.46609,117.46609,0,0,1,352,426.66667Z" style="fill:#d4c3a2"/><path d="M426.66667,309.33333H405.33333A53.39611,53.39611,0,0,0,352,256V234.66667A74.75724,74.75724,0,0,1,426.66667,309.33333Z" style="fill:#d4c3a2"/><rect x="85.33333" y="170.66667" width="149.33333" height="21.33333" style="fill:#f3eee3"/><rect x="277.33333" y="170.66667" width="85.33333" height="21.33333" style="fill:#eae2ce"/><path d="M64,234.84245V404.91536c39.50521,26.39844,84.98177,29.52474,110.3776,4.12761,30.60808-30.60807,20.32943-90.51172-22.957-133.79818C124.97656,248.80078,92.37891,234.85286,64,234.84245Z" style="fill:#993b17"/><path d="M148.5625,354.11458c-2.8125-16.40625-12.77083-34.15625-27.3125-48.69791-17.0625-17.0625-39.5625-28.08334-57.33333-28.08334V256c23.48958,0,51.23958,13.15625,72.41666,34.33333,17.59375,17.59375,29.70834,39.52084,33.25,60.17709Z" style="fill:#ad6143"/><path d="M121.25,305.41667c-17.0625-17.0625-39.5625-28.08334-57.33333-28.08334V256c23.48958,0,51.23958,13.15625,72.41666,34.33333Z" style="fill:#b7745a"/><path d="M169.58333,350.51042c3.13542,18.25-.52083,33.67708-10.29166,43.44791-7.44792,7.4375-18.23959,11.375-31.20834,11.375-20.93489,0-44.13932-10.3151-64.08333-27.26823v27.10808c20.48958,13.65755,43.11589,21.49349,64.08333,21.49349,18.75,0,34.76042-6.09375,46.29167-17.625,14.8125-14.79167,20.57292-36.86459,16.22917-62.13542Z" style="fill:#7d1a00"/><path d="M138.79167,362.66667C133.86458,362.54167,128,360.59375,128,352c0-12.86458-8.52083-32-31.875-32-4.92708-.125-10.79167-2.07292-10.79167-10.66667,0-10.66927-6.00911-25.49479-21.33333-30.29687v30.29687c0,23.47917,19.13542,32,32,32,8.59375,0,10.54167,5.86459,10.66667,10.66667,0,23.47917,19.13541,32,32,32,8.59375,0,10.54166,5.86458,10.66666,10.66667v10.66666h21.33334V394.66667C170.66667,381.80208,162.14583,362.66667,138.79167,362.66667Z" style="fill:#7d1a00"/></g></svg>